<svg xmlns="http://www.w3.org/2000/svg" viewBox="0 0 512 512" role="img" aria-labelledby="title desc">
  <title id="title">Rugby ball logo</title>
  <desc id="desc">A stylized rugby ball on a dark gradient background</desc>
  <defs>
    <radialGradient id="bg" cx="35%" cy="20%" r="85%">
      <stop offset="0" stop-color="#64d2ff" stop-opacity="0.95"/>
      <stop offset="0.42" stop-color="#243b63"/>
      <stop offset="1" stop-color="#080b12"/>
    </radialGradient>
    <linearGradient id="ball" x1="130" y1="130" x2="390" y2="380">
      <stop offset="0" stop-color="#fff7e7"/>
      <stop offset="0.46" stop-color="#d9913d"/>
      <stop offset="1" stop-color="#7a3c19"/>
    </linearGradient>
    <filter id="shadow" x="-20%" y="-20%" width="140%" height="140%">
      <feDropShadow dx="0" dy="18" stdDeviation="18" flood-color="#000" flood-opacity="0.45"/>
    </filter>
  </defs>
  <rect width="512" height="512" rx="112" fill="url(#bg)"/>
  <path d="M72 373c45-121 156-230 302-292 33-14 61 14 47 47-62 146-171 257-292 302-45 17-74-12-57-57Z" fill="url(#ball)" stroke="#fff7e7" stroke-width="14" filter="url(#shadow)"/>
  <path d="M114 397c44-110 151-216 277-273" fill="none" stroke="#5b2b15" stroke-width="10" stroke-linecap="round" opacity="0.42"/>
  <path d="M120 322c54 32 102 78 141 135" fill="none" stroke="#fff1d6" stroke-width="11" stroke-linecap="round" opacity="0.88"/>
  <path d="M191 248c52 29 97 73 133 130" fill="none" stroke="#fff1d6" stroke-width="11" stroke-linecap="round" opacity="0.88"/>
  <path d="M262 176c48 28 90 70 124 124" fill="none" stroke="#fff1d6" stroke-width="11" stroke-linecap="round" opacity="0.88"/>
  <g transform="translate(196 282) rotate(43)" stroke="#111827" stroke-width="9" stroke-linecap="round">
    <path d="M0 0h118" stroke="#ffffff"/>
    <path d="M18-21v42M42-21v42M66-21v42M90-21v42" stroke="#ffffff"/>
    <path d="M0 0h118" stroke="#7a3c19" stroke-width="3" opacity="0.45"/>
  </g>
  <path d="M89 92c53-31 104-41 154-31" stroke="#ffffff" stroke-width="12" stroke-linecap="round" opacity="0.16"/>
  <path d="M352 434c33-18 58-42 76-73" stroke="#64d2ff" stroke-width="10" stroke-linecap="round" opacity="0.35"/>
</svg>
